<?xml version="1.0" encoding="utf-8"?>
<!-- Generator: Adobe Illustrator 20.0.0, SVG Export Plug-In . SVG Version: 6.00 Build 0)  -->
<svg version="1.1" id="Layer_1" xmlns="http://www.w3.org/2000/svg" xmlns:xlink="http://www.w3.org/1999/xlink" x="0px" y="0px"
	 viewBox="0 0 66 66" style="enable-background:new 0 0 66 66;" xml:space="preserve">
<style type="text/css">
	.st0{fill:#8ABF43;}
</style>
<g>
	<g>
		<g>
			<path class="st0" d="M53.1,34.2H51c-0.9,0-1.6-0.7-1.6-1.6S50.1,31,51,31h2.1c0.9,0,1.6,0.7,1.6,1.6C54.6,33.6,54,34.2,53.1,34.2
				z"/>
		</g>
		<g>
			<path class="st0" d="M24.1,34.2H22c-0.9,0-1.6-0.7-1.6-1.6S21.1,31,22,31h2.1c0.9,0,1.6,0.7,1.6,1.6C25.6,33.6,25,34.2,24.1,34.2
				z"/>
		</g>
		<g>
			<path class="st0" d="M24.1,26H22c-0.9,0-1.6-0.7-1.6-1.6c0-0.9,0.7-1.6,1.6-1.6h2.1c0.9,0,1.6,0.7,1.6,1.6
				C25.7,25.3,25,26,24.1,26z"/>
		</g>
		<g>
			<path class="st0" d="M46.8,34.2H28.1c-0.9,0-1.6-0.7-1.6-1.6s0.7-1.6,1.6-1.6h18.7c0.9,0,1.6,0.7,1.6,1.6
				C48.5,33.6,47.7,34.2,46.8,34.2z"/>
		</g>
		<g>
			<path class="st0" d="M53.1,26h-25c-0.9,0-1.6-0.7-1.6-1.6c0-0.9,0.7-1.6,1.6-1.6H53c0.9,0,1.6,0.7,1.6,1.6
				C54.6,25.3,54,26,53.1,26z"/>
		</g>
		<g>
			<path class="st0" d="M53.1,42.6H51c-0.9,0-1.6-0.7-1.6-1.6c0-0.9,0.7-1.6,1.6-1.6h2.1c0.9,0,1.6,0.7,1.6,1.6
				C54.8,41.9,54,42.6,53.1,42.6z"/>
		</g>
		<g>
			<path class="st0" d="M46.8,42.6H22c-0.9,0-1.6-0.7-1.6-1.6c0-0.9,0.7-1.6,1.6-1.6h24.8c0.9,0,1.6,0.7,1.6,1.6
				C48.5,41.9,47.7,42.6,46.8,42.6z"/>
		</g>
	</g>
	<g>
		<path class="st0" d="M5.7,42.3c-3.1,0-5.7-2.5-5.7-5.7V5.9c0-3.1,2.5-5.7,5.7-5.7H51c3.1,0,5.7,2.5,5.7,5.7c0,0.9-0.7,1.6-1.6,1.6
			s-1.6-0.7-1.6-1.6c0-1.3-1-2.5-2.5-2.5H5.7c-1.5,0-2.5,1.2-2.5,2.5v30.7c0,1.3,1,2.5,2.5,2.5c0.9,0,1.6,0.7,1.6,1.6
			C7.2,41.5,6.4,42.3,5.7,42.3z"/>
	</g>
	<g>
		<path class="st0" d="M20.5,65.8c-0.1,0-0.4,0-0.6-0.1c-0.6-0.3-0.9-0.7-0.9-1.5v-9.4h-3.4c-3.4,0-6.1-2.8-6.1-6.1V18.9
			c0-3.4,2.8-6.1,6.1-6.1h44.3c3.4,0,6.1,2.8,6.1,6.1v29.6c0,3.4-2.8,6.1-6.1,6.1H34L21.6,65.3C21.1,65.6,20.8,65.8,20.5,65.8z
			 M15.4,15.9c-1.6,0-3,1.3-3,3v29.6c0,1.6,1.3,3,3,3h4.9c0.9,0,1.6,0.7,1.6,1.6v7.6L32.3,52c0.3-0.3,0.6-0.4,1-0.4h26.3
			c1.6,0,3-1.3,3-3V18.9c0-1.6-1.3-3-3-3H15.4z"/>
	</g>
</g>
</svg>
